<!--?xml version="1.0" encoding="utf-8"?-->
<!-- Generator: Adobe Illustrator 18.1.1, SVG Export Plug-In . SVG Version: 6.00 Build 0)  -->

<svg version="1.1" id="_x32_" xmlns="http://www.w3.org/2000/svg" xmlns:xlink="http://www.w3.org/1999/xlink" x="0px" y="0px" viewBox="0 0 512 512" style="width: 256px; height: 256px; opacity: 1;" xml:space="preserve">
<style type="text/css">
	.st0{fill:#4B4B4B;}
</style>
<g>
	<path class="st0" d="M506.283,77.48C491.449,32.488,448.945,0,399.118,0H112.882C62.977,0,20.488,32.574,5.732,77.559
		C2.016,88.693,0,100.543,0,112.882v13.22v273.016c0,1.449,0,2.898,0.079,4.354c0.567,15.716,4.441,30.638,10.819,44.103
		C29.118,485.63,67.969,512,112.882,512h286.236c44.835,0,83.701-26.37,101.921-64.347v-0.078
		c6.457-13.465,10.237-28.3,10.804-44.024v-0.079c0.157-1.456,0.157-2.905,0.157-4.354V126.024v-13.142
		C512,100.543,509.984,88.606,506.283,77.48z M48.378,168.267l110.787,96.599L48.378,361.378V168.267z M399.118,463.622H112.882
		c-30.709,0-56.362-21.449-62.882-50.158l139.811-121.913l16.85,14.677c14.11,12.339,31.764,18.543,49.26,18.464
		c17.575,0.079,35.244-6.126,49.354-18.464l16.85-14.677l139.89,122C455.402,442.252,429.764,463.622,399.118,463.622z
		 M463.622,361.465l-110.866-96.678l110.866-96.598V361.465z M463.622,114.732L278.74,275.913
		c-6.536,5.646-14.598,8.464-22.819,8.464c-8.142,0-16.205-2.819-22.74-8.464L48.378,114.732v-1.85
		c0-35.638,28.866-64.504,64.504-64.504h286.236c35.56,0,64.504,28.866,64.504,64.504V114.732z" style="fill: rgb(0, 0, 0);"></path>
</g>
</svg>
